<svg xmlns="http://www.w3.org/2000/svg" width="1277.717" height="1276.98" viewBox="0 0 1277.717 1276.98">
  <g id="_1152114" data-name="1152114" transform="translate(-2.092 1278.505)">
    <path id="パス_1270" data-name="パス 1270" d="M611-1278.3c-10.7.5-40.5,3.3-56.5,5.4-38,4.8-85.5,16-120.5,28.4-4.1,1.4-10.9,3.8-15,5.2s-7.9,2.9-8.5,3.2a36.415,36.415,0,0,1-6,2.6c-25.4,9.1-70.2,31.8-101.4,51.2-10.2,6.4-42.7,28.7-44.9,30.9a4.481,4.481,0,0,1-2,1.4,11,11,0,0,0-3.2,2.2c-1.4,1.3-5.9,5-10,8.2-4.1,3.3-13.5,11.2-20.8,17.5-7.4,6.4-14.4,12.3-15.8,13.1-3.1,1.9-35.4,34.5-35.4,35.7,0,.5-1.7,2.7-3.7,4.9-8.8,9.2-37.3,43.8-37.3,45.2a10.094,10.094,0,0,1-2.3,3.2,79.031,79.031,0,0,0-5.7,7.5,50.093,50.093,0,0,1-4,5.5c-1.1.9-19.6,29.4-25.7,39.5-11.1,18.6-22,39.1-31.3,58.9-4.5,9.8-14,32-14,33a36.934,36.934,0,0,1-2,4.9c-1,2.3-3.3,8.2-5,13.2-1.7,4.9-3.5,9.9-4,11-1.1,2.5-7.2,22.4-11.1,36.5A629.679,629.679,0,0,0,6.6-716c-9.1,80.6-4.5,155.2,14.5,231.9,9.9,39.8,22,74.3,40.1,113.6,4,8.9,19.3,38.8,23.4,45.8,11.7,20.2,31.5,50.2,44.1,66.9,4,5.3,7.3,10,7.3,10.4,0,.6,2.9,4.3,13.5,17.3,14.1,17.3,55.3,60.1,57.8,60.1a3.515,3.515,0,0,1,2.1,1.4c1.4,1.7,17.7,16,27.7,24.2a787.82,787.82,0,0,0,69.4,49.6c23.2,14.4,63.9,35.4,85.5,44,4.1,1.6,8.9,3.6,10.5,4.4,4.7,2.2,27.2,10.3,36,13,4.4,1.4,8.9,2.9,10,3.4,2.2.9,8.6,2.9,18.5,5.5,3.6.9,7.6,2.1,9,2.5,2.3.8,19.8,4.9,35.5,8.4,14.2,3.2,47.6,8.1,73,10.8,16,1.7,97.6,1.7,113.5,0,25.2-2.7,57.8-7.5,72-10.7,39.8-8.8,61.2-14.9,91.5-26,5.5-2,11.4-4.2,13-4.7a19.911,19.911,0,0,0,4-1.8,15.078,15.078,0,0,1,3.5-1.5c11.1-3.3,57.4-26.1,79.5-39,20.3-11.9,59.1-37.7,62.5-41.4,1-1.1,6.9-5.1,7.6-5.1.6,0,9.2-6.7,17.4-13.6a675.832,675.832,0,0,0,80.1-79.4c3.5-4.1,6.6-7.7,6.9-8,1.7-1.6,11-14.1,11-14.8a7.565,7.565,0,0,1,1.8-2.8c3.1-3.4,19.7-26.6,25.7-35.9,3.2-5,7.2-11.3,9-14,14.6-22.7,38.5-68.7,46.7-90,1.1-2.8,2.6-6.4,3.3-8,8.6-18.5,23.2-64.8,30.1-95.2,5.6-24.4,6.3-28.1,8.9-46.3.8-5.8,2-13.2,2.5-16.5,2.4-14,4.2-42.1,4.7-72,1.1-65.8-6.1-121.9-23.5-184.5-14.1-50.6-39.2-109-65.5-152.3-9-14.7-23.5-36.8-31.4-47.7-4.1-5.6-14.7-19.5-15.3-20-.3-.3-2.1-2.5-4-5s-3.7-4.7-4-5-2.7-3.2-5.5-6.5c-2.7-3.3-8.1-9.6-12-14.1-3.8-4.4-7.9-9.2-9.1-10.7-10-13.1-62.7-61.1-77-70.3-1.6-1-6.9-4.8-11.9-8.5-15.3-11.2-39.4-27.3-52.5-34.9-6.9-3.9-12.9-7.5-13.5-8-3.8-2.8-52.1-27-54-27-.2,0-3.2-1.3-6.7-2.9s-9.4-4.1-13.3-5.6c-3.8-1.5-8.5-3.3-10.3-4.2-3-1.3-11.1-4.2-26.2-9.3-27.9-9.4-56.1-16.5-93-23.5-9.6-1.8-41.1-5.7-60.5-7.5C678.5-1278.1,626.1-1278.9,611-1278.3ZM485-875.4C547.4-813,608.2-752.5,620.1-741l21.6,21L776.1-854.5C850-928.5,910.9-989,911.5-989c.5,0,18.7,17.7,40.2,39.2L991-910.5l-125.7,126c-69.2,69.3-129.9,130.3-135,135.5l-9.3,9.5,135,135,135,135-39.7,39.7L911.5-290,777-424.5C703-498.5,642-559,641.5-559c-1.4,0-4.5,3.1-146,144.3L370.5-290l-39.3-39.3c-21.5-21.5-39.2-39.6-39.2-40.1,0-.4,60.5-61.4,134.5-135.4L561-639.3l-20-20.6C530.1-671.2,469.6-732,406.6-795S292-909.9,292-910.3c0-1.2,77.3-78.6,78.5-78.6C371.1-989,422.6-937.9,485-875.4Z" fill="#c4c4c4"/>
  </g>
</svg>
